<?xml version="1.0" encoding="UTF-8"?>
<svg id="Layer_1" xmlns="http://www.w3.org/2000/svg" version="1.1" viewBox="0 0 2216.2 454.3">
  <!-- Generator: Adobe Illustrator 30.3.0, SVG Export Plug-In . SVG Version: 2.1.3 Build 182)  -->
  <defs>
    <style>
      .st0 {
        fill: #d12020;
      }

      .st1 {
        fill: #1d1d1b;
      }
    </style>
  </defs>
  <path class="st1" d="M461.2,352c-14.8-1.9-27.5-7.8-37.6-18.1-12.5-12.8-19.5-30-21.1-51.7,0,0-1.1-16.7-.2-27.3,1.1-12.6,4.3-22.5,4.3-22.5,2-7.6,4.9-14.3,8.7-20.3,3.8-6,8.3-11.1,13.7-15.3,5.3-4.2,11.2-7.5,17.7-9.8,6.5-2.2,13.4-3.4,20.9-3.4,32.5,0,53,16.2,61.5,48.7h-71.2v49.8h133.7l.3-14.3c0-43.5-11.2-77.5-33.6-102.1-22.6-24.7-53.3-37.1-92.1-37.1s-69.3,12.7-92.6,38.2c-23.1,25.8-34.7,59.6-34.7,101.2s11.9,75.8,35.7,101.3c22.1,23.5,51.1,35.9,86.6,37.6v-55Z"/>
  <g>
    <rect class="st1" x="825" y="47" width="60.9" height="53.3"/>
    <rect class="st1" x="825.1" y="144.2" width="60.9" height="263.1"/>
  </g>
  <path class="st1" d="M622.1,143.6h60.9v23.6c11.2-11.7,21.1-19.8,29.8-24.1,8.8-4.5,19.3-6.8,31.4-6.8s32.8,5.2,50.4,15.7l-27.9,55.8c-11.6-8.3-22.8-12.4-33.8-12.4-33.2,0-49.8,25.1-49.8,75.3v136.7h-60.9V143.6Z"/>
  <g>
    <polygon class="st1" points="52.5 119.6 188.5 402.1 203.3 402.1 289.3 222.9 216.2 222.9 196.1 265.1 126.7 119.6 52.5 119.6"/>
    <polygon class="st1" points="232.5 188.6 305.8 188.6 338.8 119.6 265.3 119.6 232.5 188.6"/>
  </g>
  <g>
    <path class="st0" d="M1614.8,136v30.6c-24.4-25.3-51.9-37.9-82.6-37.9s-65.2,13.2-88.8,39.5c-23.7,26.4-35.5,59.3-35.5,98.8s11.8,73.8,35.5,100.7c23.8,26.3,53.9,39.5,90.4,39.5s31.7-4.1,46.7-11.6v-52.5c-10.8,6.3-23.2,9.7-37.4,9.7-21.1,0-38.6-8-52.5-24.1-13.5-15.9-20.3-36.4-20.3-61.7s6.9-43.5,20.8-59.6c14.1-15.9,31.6-23.8,52.5-23.8s40.2,7.8,54.1,23.5c13.9,16.1,20.9,36.5,20.9,61.2s-.2,2.8-.3,4.3v127h57.7V136.3l-61.2-.3Z"/>
    <path class="st0" d="M2033.2,352c-14.8-1.9-27.5-7.8-37.6-18.1-12.5-12.8-19.5-30-21.1-51.7,0,0-1.1-16.7-.2-27.3,1.1-12.6,4.3-22.5,4.3-22.5,2-7.6,4.9-14.3,8.7-20.3,3.8-6,8.3-11.1,13.7-15.3,5.3-4.2,11.2-7.5,17.7-9.8,6.5-2.2,13.4-3.4,20.9-3.4,32.5,0,53,16.2,61.5,48.7h-71.2v49.8h133.7l.3-14.3c0-43.5-11.2-77.5-33.6-102.1-22.6-24.7-53.3-37.1-92.1-37.1s-69.3,12.7-92.6,38.2c-23.1,25.8-34.7,59.6-34.7,101.2s11.9,75.8,35.7,101.3c22.1,23.5,51.1,35.9,86.6,37.6v-55Z"/>
    <path class="st0" d="M1733.5,143.6h60.9v23.6c11.2-11.7,21.1-19.8,29.8-24.1,8.8-4.5,19.3-6.8,31.4-6.8s32.8,5.2,50.4,15.7l-27.9,55.8c-11.6-8.3-22.8-12.4-33.8-12.4-33.2,0-49.8,25.1-49.8,75.3v136.7h-60.9V143.6Z"/>
    <path class="st0" d="M1087.8,181l-50.3,26.8c-7.9-16.2-17.8-24.4-29.5-24.4s-10.4,1.9-14.3,5.6c-4,3.7-6,8.4-6,14.2,0,10.1,11.7,20.1,35.2,30.1,32.3,13.9,54.1,26.7,65.2,38.4,11.2,11.7,16.8,27.5,16.8,47.4s-9.4,46.7-28.2,63.9c-18.2,16.2-40.2,24.4-66,24.4-44.2,0-75.5-21.6-93.9-64.7l52-24.1c7.2,12.6,12.7,20.7,16.5,24.1,7.4,6.9,16.2,10.3,26.5,10.3,20.6,0,30.9-9.4,30.9-28.2s-7.9-20.9-23.8-30.3c-6.1-3.1-12.3-6-18.4-8.9-6.1-2.9-12.4-5.9-18.7-8.9-17.7-8.7-30.2-17.3-37.4-26-9.2-11-13.8-25.2-13.8-42.5s7.8-41.9,23.5-56.9c16.1-15,35.6-22.5,58.5-22.5,33.7,0,58.8,17.4,75.3,52.2"/>
    <path class="st0" d="M1206.5,250.2v157.1h-63.2V49.9h61.8v134.9h3.1c6.3-15.1,16-27.1,29.2-35.9,13.2-8.8,30-13.2,50.5-13.2s34.8,3.9,48.7,11.7c13.8,7.8,24.6,19.2,32.2,34.2,7.6,15,11.4,33.3,11.4,55v170.7h-63.2v-160.9c0-18-4.6-32.1-13.9-42.1-9.2-10.1-22.2-15.1-38.8-15.1s-21.1,2.4-29.9,7.2c-8.8,4.8-15.6,11.8-20.6,20.9-4.9,9.1-7.4,20.1-7.4,33Z"/>
  </g>
</svg>